<svg version="1.1" viewBox="0.0 0.0 40.0 40.0" fill="none" stroke="none" stroke-linecap="square" stroke-miterlimit="10" xmlns:xlink="http://www.w3.org/1999/xlink" xmlns="http://www.w3.org/2000/svg"><clipPath id="p.0"><path d="m0 0l40.0 0l0 40.0l-40.0 0l0 -40.0z" clip-rule="nonzero"/></clipPath><g clip-path="url(#p.0)"><path fill="#000000" fill-opacity="0.0" d="m0 0l40.0 0l0 40.0l-40.0 0z" fill-rule="evenodd"/><path fill="#434343" d="m12.235379 34.081264l15.52756 0c0.5972576 0 1.1700554 0.23725891 1.5923805 0.65958786c0.42232704 0.42232513 0.65958786 0.995121 0.65958786 1.5923805l0 2.2519684c0 9.1552734E-5 -7.6293945E-5 1.6784668E-4 -1.6784668E-4 1.6784668E-4l-20.03133 -1.6784668E-4l0 0c-9.1552734E-5 0 -1.66893E-4 -7.6293945E-5 -1.66893E-4 -1.6784668E-4l1.66893E-4 -2.2518005l0 0c0 -1.2437286 1.0082407 -2.2519684 2.2519684 -2.2519684z" fill-rule="evenodd"/><path stroke="#000000" stroke-width="1.0" stroke-linejoin="round" stroke-linecap="butt" d="m12.235379 34.081264l15.52756 0c0.5972576 0 1.1700554 0.23725891 1.5923805 0.65958786c0.42232704 0.42232513 0.65958786 0.995121 0.65958786 1.5923805l0 2.2519684c0 9.1552734E-5 -7.6293945E-5 1.6784668E-4 -1.6784668E-4 1.6784668E-4l-20.03133 -1.6784668E-4l0 0c-9.1552734E-5 0 -1.66893E-4 -7.6293945E-5 -1.66893E-4 -1.6784668E-4l1.66893E-4 -2.2518005l0 0c0 -1.2437286 1.0082407 -2.2519684 2.2519684 -2.2519684z" fill-rule="evenodd"/><path fill="#434343" d="m12.960629 34.084l3.6134424 -10.992126l6.851856 0l3.6134415 10.992126z" fill-rule="evenodd"/><path stroke="#000000" stroke-width="1.0" stroke-linejoin="round" stroke-linecap="butt" d="m12.960629 34.084l3.6134424 -10.992126l6.851856 0l3.6134415 10.992126z" fill-rule="evenodd"/><path fill="#434343" d="m14.488189 19.272966l0 0c0 -4.000803 2.467723 -7.244095 5.5118113 -7.244095l0 0c1.4618225 0 2.8637733 0.76321507 3.897438 2.121746c1.0336666 1.358531 1.6143723 3.2010956 1.6143723 5.122349l0 0c0 4.000803 -2.467722 7.244095 -5.5118103 7.244095l0 0c-3.0440884 0 -5.5118113 -3.2432919 -5.5118113 -7.244095z" fill-rule="evenodd"/><path stroke="#000000" stroke-width="1.0" stroke-linejoin="round" stroke-linecap="butt" d="m14.488189 19.272966l0 0c0 -4.000803 2.467723 -7.244095 5.5118113 -7.244095l0 0c1.4618225 0 2.8637733 0.76321507 3.897438 2.121746c1.0336666 1.358531 1.6143723 3.2010956 1.6143723 5.122349l0 0c0 4.000803 -2.467722 7.244095 -5.5118103 7.244095l0 0c-3.0440884 0 -5.5118113 -3.2432919 -5.5118113 -7.244095z" fill-rule="evenodd"/><path fill="#434343" d="m17.937008 11.3412075l0 0c0 -1.1393595 0.9236336 -2.062992 2.062992 -2.062992l0 0c0.5471401 0 1.0718689 0.21735 1.4587555 0.6042366c0.3868866 0.38688564 0.6042366 0.9116154 0.6042366 1.4587555l0 0c0 1.1393585 -0.9236336 2.062992 -2.062992 2.062992l0 0c-1.1393585 0 -2.062992 -0.9236336 -2.062992 -2.062992z" fill-rule="evenodd"/><path stroke="#000000" stroke-width="1.0" stroke-linejoin="round" stroke-linecap="butt" d="m17.937008 11.3412075l0 0c0 -1.1393595 0.9236336 -2.062992 2.062992 -2.062992l0 0c0.5471401 0 1.0718689 0.21735 1.4587555 0.6042366c0.3868866 0.38688564 0.6042366 0.9116154 0.6042366 1.4587555l0 0c0 1.1393585 -0.9236336 2.062992 -2.062992 2.062992l0 0c-1.1393585 0 -2.062992 -0.9236336 -2.062992 -2.062992z" fill-rule="evenodd"/><path fill="#000000" fill-opacity="0.0" d="m21.45576 20.66088l0 0c-0.7173519 -2.59091 0.1525135 -5.2661333 2.1974049 -6.758003l3.90551 5.370079z" fill-rule="evenodd"/><path fill="#000000" fill-opacity="0.0" d="m21.45576 20.66088l0 0c-0.7173519 -2.59091 0.1525135 -5.2661333 2.1974049 -6.758003" fill-rule="evenodd"/><path stroke="#000000" stroke-width="1.0" stroke-linejoin="round" stroke-linecap="butt" d="m21.45576 20.66088l0 0c-0.7173519 -2.59091 0.1525135 -5.2661333 2.1974049 -6.758003" fill-rule="evenodd"/></g></svg>