<svg version="1.1" viewBox="0.0 0.0 40.0 40.0" fill="none" stroke="none" stroke-linecap="square" stroke-miterlimit="10" xmlns:xlink="http://www.w3.org/1999/xlink" xmlns="http://www.w3.org/2000/svg"><clipPath id="p.0"><path d="m0 0l40.0 0l0 40.0l-40.0 0l0 -40.0z" clip-rule="nonzero"/></clipPath><g clip-path="url(#p.0)"><path fill="#000000" fill-opacity="0.0" d="m0 0l40.0 0l0 40.0l-40.0 0z" fill-rule="evenodd"/><path fill="#434343" d="m12.235379 34.081264l15.52756 0c0.5972576 0 1.1700554 0.23725891 1.5923805 0.65958786c0.42232704 0.42232513 0.65958786 0.995121 0.65958786 1.5923805l0 2.2519684c0 9.1552734E-5 -7.6293945E-5 1.6784668E-4 -1.6784668E-4 1.6784668E-4l-20.03133 -1.6784668E-4l0 0c-9.1552734E-5 0 -1.66893E-4 -7.6293945E-5 -1.66893E-4 -1.6784668E-4l1.66893E-4 -2.2518005l0 0c0 -1.2437286 1.0082407 -2.2519684 2.2519684 -2.2519684z" fill-rule="evenodd"/><path stroke="#000000" stroke-width="1.0" stroke-linejoin="round" stroke-linecap="butt" d="m12.235379 34.081264l15.52756 0c0.5972576 0 1.1700554 0.23725891 1.5923805 0.65958786c0.42232704 0.42232513 0.65958786 0.995121 0.65958786 1.5923805l0 2.2519684c0 9.1552734E-5 -7.6293945E-5 1.6784668E-4 -1.6784668E-4 1.6784668E-4l-20.03133 -1.6784668E-4l0 0c-9.1552734E-5 0 -1.66893E-4 -7.6293945E-5 -1.66893E-4 -1.6784668E-4l1.66893E-4 -2.2518005l0 0c0 -1.2437286 1.0082407 -2.2519684 2.2519684 -2.2519684z" fill-rule="evenodd"/><path fill="#434343" d="m12.960952 34.080086l3.3960142 -10.330708l7.2867126 0l3.3960133 10.330708z" fill-rule="evenodd"/><path stroke="#000000" stroke-width="1.0" stroke-linejoin="round" stroke-linecap="butt" d="m12.960952 34.080086l3.3960142 -10.330708l7.2867126 0l3.3960133 10.330708z" fill-rule="evenodd"/><path fill="#434343" d="m24.467566 21.78787c0.34514427 -0.9068241 0.9256344 -2.5446205 0.5590553 -3.724411c-0.36657906 -1.1797886 -1.7147846 -2.531495 -2.7585297 -3.35433c-1.043745 -0.82283497 -1.8775158 -2.1093616 -3.5039368 -1.5826769c-1.626421 0.5266838 -4.5936136 3.3337698 -6.254593 4.7427816c-1.6609802 1.4090118 -2.8521442 2.6342964 -3.7112865 3.7112865c-0.8591423 1.0769901 -1.2375326 1.7655296 -1.4435697 2.7506561c-0.20603657 0.9851265 -0.3652668 2.6907253 0.2073493 3.1601048c0.5726156 0.46937943 1.8425198 0.18285179 3.2283468 -0.34383202c1.3858261 -0.5266838 3.0590544 -2.2090988 5.0866137 -2.8162727c2.0275583 -0.6071739 5.6469812 -0.40288734 7.07874 -0.8267727c1.4317589 -0.42388344 1.166666 -0.80970955 1.5118103 -1.7165337z" fill-rule="evenodd"/><path stroke="#000000" stroke-width="1.0" stroke-linejoin="round" stroke-linecap="butt" d="m24.467566 21.78787c0.34514427 -0.9068241 0.9256344 -2.5446205 0.5590553 -3.724411c-0.36657906 -1.1797886 -1.7147846 -2.531495 -2.7585297 -3.35433c-1.043745 -0.82283497 -1.8775158 -2.1093616 -3.5039368 -1.5826769c-1.626421 0.5266838 -4.5936136 3.3337698 -6.254593 4.7427816c-1.6609802 1.4090118 -2.8521442 2.6342964 -3.7112865 3.7112865c-0.8591423 1.0769901 -1.2375326 1.7655296 -1.4435697 2.7506561c-0.20603657 0.9851265 -0.3652668 2.6907253 0.2073493 3.1601048c0.5726156 0.46937943 1.8425198 0.18285179 3.2283468 -0.34383202c1.3858261 -0.5266838 3.0590544 -2.2090988 5.0866137 -2.8162727c2.0275583 -0.6071739 5.6469812 -0.40288734 7.07874 -0.8267727c1.4317589 -0.42388344 1.166666 -0.80970955 1.5118103 -1.7165337z" fill-rule="evenodd"/><path fill="#000000" d="m17.46143 17.409473l0 0c0 -0.60881805 0.49354553 -1.1023617 1.1023636 -1.1023617l0 0c0.29236412 0 0.5727539 0.116140366 0.7794876 0.32287407c0.2067318 0.2067337 0.32287407 0.4871235 0.32287407 0.7794876l0 0c0 0.60881805 -0.49354362 1.1023617 -1.1023617 1.1023617l0 0c-0.60881805 0 -1.1023636 -0.49354362 -1.1023636 -1.1023617z" fill-rule="evenodd"/><path stroke="#000000" stroke-width="1.0" stroke-linejoin="round" stroke-linecap="butt" d="m17.46143 17.409473l0 0c0 -0.60881805 0.49354553 -1.1023617 1.1023636 -1.1023617l0 0c0.29236412 0 0.5727539 0.116140366 0.7794876 0.32287407c0.2067318 0.2067337 0.32287407 0.4871235 0.32287407 0.7794876l0 0c0 0.60881805 -0.49354362 1.1023617 -1.1023617 1.1023617l0 0c-0.60881805 0 -1.1023636 -0.49354362 -1.1023636 -1.1023617z" fill-rule="evenodd"/><path fill="#000000" fill-opacity="0.0" d="m7.9343996 27.598309l0 0c0.6067085 -1.2789135 1.4047794 -2.4229622 2.2717524 -3.2565994l0.62588596 4.6424255z" fill-rule="evenodd"/><path fill="#000000" fill-opacity="0.0" d="m7.9343996 27.598309l0 0c0.6067085 -1.2789135 1.4047794 -2.4229622 2.2717524 -3.2565994" fill-rule="evenodd"/><path stroke="#000000" stroke-width="1.0" stroke-linejoin="round" stroke-linecap="butt" d="m7.9343996 27.598309l0 0c0.6067085 -1.2789135 1.4047794 -2.4229622 2.2717524 -3.2565994" fill-rule="evenodd"/><path fill="#434343" d="m17.682623 13.441619l1.1653538 -2.8031492l1.6063004 2.5511808z" fill-rule="evenodd"/><path stroke="#000000" stroke-width="1.0" stroke-linejoin="round" stroke-linecap="butt" d="m17.682623 13.441619l1.1653538 -2.8031492l1.6063004 2.5511808z" fill-rule="evenodd"/></g></svg>