<svg version="1.1" viewBox="0.0 0.0 40.0 40.0" fill="none" stroke="none" stroke-linecap="square" stroke-miterlimit="10" xmlns:xlink="http://www.w3.org/1999/xlink" xmlns="http://www.w3.org/2000/svg"><clipPath id="p.0"><path d="m0 0l40.0 0l0 40.0l-40.0 0l0 -40.0z" clip-rule="nonzero"/></clipPath><g clip-path="url(#p.0)"><path fill="#000000" fill-opacity="0.0" d="m0 0l40.0 0l0 40.0l-40.0 0z" fill-rule="evenodd"/><path fill="#ffffff" d="m12.11651 35.382545l7.889763 -13.795275l7.889765 13.795275z" fill-rule="evenodd"/><path stroke="#000000" stroke-width="1.0" stroke-linejoin="round" stroke-linecap="butt" d="m12.11651 35.382545l7.889763 -13.795275l7.889765 13.795275z" fill-rule="evenodd"/><path fill="#ffffff" d="m11.118111 35.380272l17.763779 0c0.41766357 0 0.81822205 0.16591644 1.113554 0.4612503c0.29533386 0.29533005 0.4612503 0.6958885 0.4612503 1.1135521l0 1.5748024c0 9.918213E-5 -7.8201294E-5 1.7547607E-4 -1.7547607E-4 1.7547607E-4l-20.913212 -1.7547607E-4l0 0c-9.6321106E-5 0 -1.745224E-4 -7.6293945E-5 -1.745224E-4 -1.7166138E-4l1.745224E-4 -1.5746307l0 0c0 -0.86973953 0.70506287 -1.5748024 1.5748034 -1.5748024z" fill-rule="evenodd"/><path stroke="#000000" stroke-width="1.0" stroke-linejoin="round" stroke-linecap="butt" d="m11.118111 35.380272l17.763779 0c0.41766357 0 0.81822205 0.16591644 1.113554 0.4612503c0.29533386 0.29533005 0.4612503 0.6958885 0.4612503 1.1135521l0 1.5748024c0 9.918213E-5 -7.8201294E-5 1.7547607E-4 -1.7547607E-4 1.7547607E-4l-20.913212 -1.7547607E-4l0 0c-9.6321106E-5 0 -1.745224E-4 -7.6293945E-5 -1.745224E-4 -1.7166138E-4l1.745224E-4 -1.5746307l0 0c0 -0.86973953 0.70506287 -1.5748024 1.5748034 -1.5748024z" fill-rule="evenodd"/><path fill="#ffffff" d="m16.535683 18.070866l0 0c0 -1.9221249 1.5511398 -3.4803143 3.4645672 -3.4803143l0 0c0.9188595 0 1.800087 0.36667442 2.4498196 1.0193605c0.6497307 0.6526861 1.0147476 1.5379171 1.0147476 2.4609537l0 0c0 1.9221249 -1.5511398 3.4803162 -3.4645672 3.4803162l0 0c-1.9134274 0 -3.4645672 -1.5581913 -3.4645672 -3.4803162z" fill-rule="evenodd"/><path stroke="#000000" stroke-width="1.0" stroke-linejoin="round" stroke-linecap="butt" d="m16.535683 18.070866l0 0c0 -1.9221249 1.5511398 -3.4803143 3.4645672 -3.4803143l0 0c0.9188595 0 1.800087 0.36667442 2.4498196 1.0193605c0.6497307 0.6526861 1.0147476 1.5379171 1.0147476 2.4609537l0 0c0 1.9221249 -1.5511398 3.4803162 -3.4645672 3.4803162l0 0c-1.9134274 0 -3.4645672 -1.5581913 -3.4645672 -3.4803162z" fill-rule="evenodd"/><path fill="#ffffff" d="m15.165196 23.129444l0 0c0 -0.86973953 0.70506287 -1.5748024 1.5748034 -1.5748024l6.519684 0l0 0c0.41766548 0 0.81822205 0.16591644 1.113554 0.4612484c0.29533386 0.29533386 0.4612503 0.6958904 0.4612503 1.113554l0 0l0 0c0 0.86973953 -0.70506287 1.5748043 -1.5748043 1.5748043l-6.519684 0c-0.8697405 0 -1.5748034 -0.7050648 -1.5748034 -1.5748043z" fill-rule="evenodd"/><path stroke="#000000" stroke-width="1.0" stroke-linejoin="round" stroke-linecap="butt" d="m15.165196 23.129444l0 0c0 -0.86973953 0.70506287 -1.5748024 1.5748034 -1.5748024l6.519684 0l0 0c0.41766548 0 0.81822205 0.16591644 1.113554 0.4612484c0.29533386 0.29533386 0.4612503 0.6958904 0.4612503 1.113554l0 0l0 0c0 0.86973953 -0.70506287 1.5748043 -1.5748043 1.5748043l-6.519684 0c-0.8697405 0 -1.5748034 -0.7050648 -1.5748034 -1.5748043z" fill-rule="evenodd"/></g></svg>