<svg version="1.1" viewBox="0.0 0.0 40.0 40.0" fill="none" stroke="none" stroke-linecap="square" stroke-miterlimit="10" xmlns:xlink="http://www.w3.org/1999/xlink" xmlns="http://www.w3.org/2000/svg"><clipPath id="p.0"><path d="m0 0l40.0 0l0 40.0l-40.0 0l0 -40.0z" clip-rule="nonzero"/></clipPath><g clip-path="url(#p.0)"><path fill="#000000" fill-opacity="0.0" d="m0 0l40.0 0l0 40.0l-40.0 0z" fill-rule="evenodd"/><path fill="#ffffff" d="m11.858268 33.83087l16.283466 0c0.62649536 0 1.2273312 0.24887466 1.67033 0.69187546c0.4429989 0.44299698 0.69187355 1.0438347 0.69187355 1.67033l0 2.3622055c0 9.536743E-5 -7.8201294E-5 1.7547607E-4 -1.7547607E-4 1.7547607E-4l-21.007698 -1.7547607E-4l0 0c-9.727478E-5 0 -1.7547607E-4 -8.010864E-5 -1.7547607E-4 -1.7547607E-4l1.7547607E-4 -2.36203l0 0c0 -1.3046112 1.0575953 -2.3622055 2.3622046 -2.3622055z" fill-rule="evenodd"/><path stroke="#000000" stroke-width="1.0" stroke-linejoin="round" stroke-linecap="butt" d="m11.858268 33.83087l16.283466 0c0.62649536 0 1.2273312 0.24887466 1.67033 0.69187546c0.4429989 0.44299698 0.69187355 1.0438347 0.69187355 1.67033l0 2.3622055c0 9.536743E-5 -7.8201294E-5 1.7547607E-4 -1.7547607E-4 1.7547607E-4l-21.007698 -1.7547607E-4l0 0c-9.727478E-5 0 -1.7547607E-4 -8.010864E-5 -1.7547607E-4 -1.7547607E-4l1.7547607E-4 -2.36203l0 0c0 -1.3046112 1.0575953 -2.3622055 2.3622046 -2.3622055z" fill-rule="evenodd"/><path fill="#ffffff" d="m13.394773 33.832584l2.8005743 -15.149609l7.627199 0l2.8005733 15.149609z" fill-rule="evenodd"/><path stroke="#000000" stroke-width="1.0" stroke-linejoin="round" stroke-linecap="butt" d="m13.394773 33.832584l2.8005743 -15.149609l7.627199 0l2.8005733 15.149609z" fill-rule="evenodd"/><path fill="#ffffff" d="m11.85932 16.053434l0 0c0 -1.8090582 3.6451778 -3.27559 8.141733 -3.27559l0 0c4.4965534 0 8.141731 1.4665318 8.141731 3.27559l0 0c0 1.8090591 -3.6451778 3.275591 -8.141731 3.275591l0 0c-4.4965553 0 -8.141733 -1.4665318 -8.141733 -3.275591z" fill-rule="evenodd"/><path stroke="#000000" stroke-width="1.0" stroke-linejoin="round" stroke-linecap="butt" d="m11.85932 16.053434l0 0c0 -1.8090582 3.6451778 -3.27559 8.141733 -3.27559l0 0c4.4965534 0 8.141731 1.4665318 8.141731 3.27559l0 0c0 1.8090591 -3.6451778 3.275591 -8.141731 3.275591l0 0c-4.4965553 0 -8.141733 -1.4665318 -8.141733 -3.275591z" fill-rule="evenodd"/><path fill="#ffffff" d="m15.702633 6.325447l2.6648083 0l0 -3.0004325l3.2808647 0l0 3.0004325l2.6648083 0l0 3.2808647l-2.6648083 0l0 3.000432l-3.2808647 0l0 -3.000432l-2.6648083 0z" fill-rule="evenodd"/><path stroke="#000000" stroke-width="1.0" stroke-linejoin="round" stroke-linecap="butt" d="m15.702633 6.325447l2.6648083 0l0 -3.0004325l3.2808647 0l0 3.0004325l2.6648083 0l0 3.2808647l-2.6648083 0l0 3.000432l-3.2808647 0l0 -3.000432l-2.6648083 0z" fill-rule="evenodd"/></g></svg>