<svg version="1.1" viewBox="0.0 0.0 40.0 40.0" fill="none" stroke="none" stroke-linecap="square" stroke-miterlimit="10" xmlns:xlink="http://www.w3.org/1999/xlink" xmlns="http://www.w3.org/2000/svg"><clipPath id="p.0"><path d="m0 0l40.0 0l0 40.0l-40.0 0l0 -40.0z" clip-rule="nonzero"/></clipPath><g clip-path="url(#p.0)"><path fill="#000000" fill-opacity="0.0" d="m0 0l40.0 0l0 40.0l-40.0 0z" fill-rule="evenodd"/><path fill="#ffffff" d="m11.858268 33.83087l16.283466 0c0.62649536 0 1.2273312 0.24887466 1.67033 0.69187546c0.4429989 0.44299698 0.69187355 1.0438347 0.69187355 1.67033l0 2.3622055c0 9.536743E-5 -7.8201294E-5 1.7547607E-4 -1.7547607E-4 1.7547607E-4l-21.007698 -1.7547607E-4l0 0c-9.727478E-5 0 -1.7547607E-4 -8.010864E-5 -1.7547607E-4 -1.7547607E-4l1.7547607E-4 -2.36203l0 0c0 -1.3046112 1.0575953 -2.3622055 2.3622046 -2.3622055z" fill-rule="evenodd"/><path stroke="#000000" stroke-width="1.0" stroke-linejoin="round" stroke-linecap="butt" d="m11.858268 33.83087l16.283466 0c0.62649536 0 1.2273312 0.24887466 1.67033 0.69187546c0.4429989 0.44299698 0.69187355 1.0438347 0.69187355 1.67033l0 2.3622055c0 9.536743E-5 -7.8201294E-5 1.7547607E-4 -1.7547607E-4 1.7547607E-4l-21.007698 -1.7547607E-4l0 0c-9.727478E-5 0 -1.7547607E-4 -8.010864E-5 -1.7547607E-4 -1.7547607E-4l1.7547607E-4 -2.36203l0 0c0 -1.3046112 1.0575953 -2.3622055 2.3622046 -2.3622055z" fill-rule="evenodd"/><path fill="#ffffff" d="m13.106059 33.719723l2.8005733 -15.149607l7.6272 0l2.8005733 15.149607z" fill-rule="evenodd"/><path stroke="#000000" stroke-width="1.0" stroke-linejoin="round" stroke-linecap="butt" d="m13.106059 33.719723l2.8005733 -15.149607l7.6272 0l2.8005733 15.149607z" fill-rule="evenodd"/><path fill="#ffffff" d="m11.570606 15.940574l0 0c0 -1.8090582 3.6451778 -3.27559 8.141731 -3.27559l0 0c4.4965553 0 8.141733 1.4665318 8.141733 3.27559l0 0c0 1.8090582 -3.6451778 3.27559 -8.141733 3.27559l0 0c-4.4965534 0 -8.141731 -1.4665318 -8.141731 -3.27559z" fill-rule="evenodd"/><path stroke="#000000" stroke-width="1.0" stroke-linejoin="round" stroke-linecap="butt" d="m11.570606 15.940574l0 0c0 -1.8090582 3.6451778 -3.27559 8.141731 -3.27559l0 0c4.4965553 0 8.141733 1.4665318 8.141733 3.27559l0 0c0 1.8090582 -3.6451778 3.27559 -8.141733 3.27559l0 0c-4.4965534 0 -8.141731 -1.4665318 -8.141731 -3.27559z" fill-rule="evenodd"/><path fill="#ffffff" d="m18.064587 12.682109l0.8267727 -3.385827l1.6535416 -0.031496048l0.8267727 3.354331z" fill-rule="evenodd"/><path stroke="#000000" stroke-width="1.0" stroke-linejoin="round" stroke-linecap="butt" d="m18.064587 12.682109l0.8267727 -3.385827l1.6535416 -0.031496048l0.8267727 3.354331z" fill-rule="evenodd"/><path fill="#ffffff" d="m23.803295 12.945238l2.031496 -2.7952757l1.5433064 0.5826769l-0.4881897 3.3779535z" fill-rule="evenodd"/><path stroke="#000000" stroke-width="1.0" stroke-linejoin="round" stroke-linecap="butt" d="m23.803295 12.945238l2.031496 -2.7952757l1.5433064 0.5826769l-0.4881897 3.3779535z" fill-rule="evenodd"/><path fill="#ffffff" d="m18.064587 7.9344087l0 0c0 -0.9132266 0.7403164 -1.6535435 1.6535435 -1.6535435l0 0c0.43854713 0 0.85913277 0.17421246 1.1692314 0.48431158c0.31010056 0.3100996 0.48431206 0.73068476 0.48431206 1.1692319l0 0c0 0.9132266 -0.7403164 1.653543 -1.6535435 1.653543l0 0c-0.9132271 0 -1.6535435 -0.7403164 -1.6535435 -1.653543z" fill-rule="evenodd"/><path stroke="#000000" stroke-width="1.0" stroke-linejoin="round" stroke-linecap="butt" d="m18.064587 7.9344087l0 0c0 -0.9132266 0.7403164 -1.6535435 1.6535435 -1.6535435l0 0c0.43854713 0 0.85913277 0.17421246 1.1692314 0.48431158c0.31010056 0.3100996 0.48431206 0.73068476 0.48431206 1.1692319l0 0c0 0.9132266 -0.7403164 1.653543 -1.6535435 1.653543l0 0c-0.9132271 0 -1.6535435 -0.7403164 -1.6535435 -1.653543z" fill-rule="evenodd"/><path fill="#ffffff" d="m25.490639 8.9064665l0 0c0 -0.9132266 0.7403183 -1.6535435 1.6535435 -1.6535435l0 0c0.43854713 0 0.85913277 0.17421198 1.1692333 0.48431158c0.31009865 0.31010008 0.48431015 0.73068476 0.48431015 1.1692319l0 0c0 0.9132271 -0.7403164 1.6535435 -1.6535435 1.6535435l0 0c-0.9132252 0 -1.6535435 -0.7403164 -1.6535435 -1.6535435z" fill-rule="evenodd"/><path stroke="#000000" stroke-width="1.0" stroke-linejoin="round" stroke-linecap="butt" d="m25.490639 8.9064665l0 0c0 -0.9132266 0.7403183 -1.6535435 1.6535435 -1.6535435l0 0c0.43854713 0 0.85913277 0.17421198 1.1692333 0.48431158c0.31009865 0.31010008 0.48431015 0.73068476 0.48431015 1.1692319l0 0c0 0.9132271 -0.7403164 1.6535435 -1.6535435 1.6535435l0 0c-0.9132252 0 -1.6535435 -0.7403164 -1.6535435 -1.6535435z" fill-rule="evenodd"/><path fill="#ffffff" d="m15.621968 12.945238l-2.031496 -2.7952757l-1.5433073 0.5826769l0.4881897 3.3779535z" fill-rule="evenodd"/><path stroke="#000000" stroke-width="1.0" stroke-linejoin="round" stroke-linecap="butt" d="m15.621968 12.945238l-2.031496 -2.7952757l-1.5433073 0.5826769l0.4881897 3.3779535z" fill-rule="evenodd"/><path fill="#ffffff" d="m13.934623 8.9064665l0 0c0 -0.9132266 -0.7403164 -1.6535435 -1.6535435 -1.6535435l0 0c-0.43854713 0 -0.8591318 0.17421198 -1.1692314 0.48431158c-0.3100996 0.31010008 -0.48431206 0.73068476 -0.48431206 1.1692319l0 0c0 0.9132271 0.74031734 1.6535435 1.6535435 1.6535435l0 0c0.9132271 0 1.6535435 -0.7403164 1.6535435 -1.6535435z" fill-rule="evenodd"/><path stroke="#000000" stroke-width="1.0" stroke-linejoin="round" stroke-linecap="butt" d="m13.934623 8.9064665l0 0c0 -0.9132266 -0.7403164 -1.6535435 -1.6535435 -1.6535435l0 0c-0.43854713 0 -0.8591318 0.17421198 -1.1692314 0.48431158c-0.3100996 0.31010008 -0.48431206 0.73068476 -0.48431206 1.1692319l0 0c0 0.9132271 0.74031734 1.6535435 1.6535435 1.6535435l0 0c0.9132271 0 1.6535435 -0.7403164 1.6535435 -1.6535435z" fill-rule="evenodd"/></g></svg>