<svg version="1.1" viewBox="0.0 0.0 256.0 256.0" fill="none" stroke="none" stroke-linecap="square" stroke-miterlimit="10" xmlns:xlink="http://www.w3.org/1999/xlink" xmlns="http://www.w3.org/2000/svg"><clipPath id="p.0"><path d="m0 0l256.0 0l0 256.0l-256.0 0l0 -256.0z" clip-rule="nonzero"/></clipPath><g clip-path="url(#p.0)"><path fill="#000000" fill-opacity="0.0" d="m0 0l256.0 0l0 256.0l-256.0 0z" fill-rule="evenodd"/><path fill="#0e0e0e" d="m114.52362 98.43964l0 0c-7.2014465 0 -13.039368 8.651123 -13.039368 19.32283c0 10.671707 5.837921 19.32283 13.039368 19.32283l0 -6.519684c-3.6007233 0 -6.519684 -5.7321625 -6.519684 -12.803146c0 -7.070984 2.9189606 -12.803146 6.519684 -12.803146z" fill-rule="evenodd"/><path stroke="#0e0e0e" stroke-width="1.0" stroke-linejoin="round" stroke-linecap="butt" d="m114.52362 98.43964l0 0c-7.2014465 0 -13.039368 8.651123 -13.039368 19.32283c0 10.671707 5.837921 19.32283 13.039368 19.32283l0 -6.519684c-3.6007233 0 -6.519684 -5.7321625 -6.519684 -12.803146c0 -7.070984 2.9189606 -12.803146 6.519684 -12.803146z" fill-rule="evenodd"/><path fill="#0e0e0e" d="m153.36835 130.54199l-38.582672 0l0 6.582672l38.582672 0z" fill-rule="evenodd"/><path stroke="#0e0e0e" stroke-width="1.0" stroke-linejoin="round" stroke-linecap="butt" d="m153.36835 130.54199l-38.582672 0l0 6.582672l38.582672 0z" fill-rule="evenodd"/><path fill="#0e0e0e" d="m153.59348 98.43964l0 0c7.2014465 0 13.039368 8.651123 13.039368 19.32283c0 10.671707 -5.837921 19.32283 -13.039368 19.32283l0 -6.519684c3.6007233 0 6.519684 -5.7321625 6.519684 -12.803146c0 -7.070984 -2.9189606 -12.803146 -6.519684 -12.803146z" fill-rule="evenodd"/><path stroke="#0e0e0e" stroke-width="1.0" stroke-linejoin="round" stroke-linecap="butt" d="m153.59348 98.43964l0 0c7.2014465 0 13.039368 8.651123 13.039368 19.32283c0 10.671707 -5.837921 19.32283 -13.039368 19.32283l0 -6.519684c3.6007233 0 6.519684 -5.7321625 6.519684 -12.803146c0 -7.070984 -2.9189606 -12.803146 -6.519684 -12.803146z" fill-rule="evenodd"/><path fill="#000000" d="m133.39502 123.91207l0 0c3.9138184 0 7.086609 -4.921341 7.086609 -10.992126c0 -6.070778 -3.1727905 -10.992126 -7.086609 -10.992126l0 0c3.0651855 6.5569153 3.0651855 15.427345 0 21.984253z" fill-rule="evenodd"/><path stroke="#000000" stroke-width="1.0" stroke-linejoin="round" stroke-linecap="butt" d="m133.39502 123.91207l0 0c3.9138184 0 7.086609 -4.921341 7.086609 -10.992126c0 -6.070778 -3.1727905 -10.992126 -7.086609 -10.992126l0 0c3.0651855 6.5569153 3.0651855 15.427345 0 21.984253z" fill-rule="evenodd"/><path fill="#2f2f2f" d="m239.22441 196.35039l-40.430573 -101.92126l-46.246597 0l40.430573 101.92126z" fill-rule="evenodd"/><path stroke="#2f2f2f" stroke-width="16.0" stroke-linejoin="round" stroke-linecap="butt" d="m239.22441 196.35039l-40.430573 -101.92126l-46.246597 0l40.430573 101.92126z" fill-rule="evenodd"/><path fill="#000000" d="m330.0942 31.268707l0 0c2.158844 -5.450897 8.327423 -8.11878 13.777893 -5.9588833l39.47467 15.642889l0 0c2.6174011 1.03722 4.71579 3.0718002 5.8335266 5.6561546c1.1177063 2.5843582 1.1632385 5.506794 0.12652588 8.124405l-40.843567 103.12669c-2.158844 5.450897 -8.327423 8.118774 -13.777893 5.9588776l-39.47467 -15.642883c-5.4505005 -2.1598969 -8.1188965 -8.329666 -5.9600525 -13.780563z" fill-rule="evenodd"/><path stroke="#000000" stroke-width="1.0" stroke-linejoin="round" stroke-linecap="butt" d="m330.0942 31.268707l0 0c2.158844 -5.450897 8.327423 -8.11878 13.777893 -5.9588833l39.47467 15.642889l0 0c2.6174011 1.03722 4.71579 3.0718002 5.8335266 5.6561546c1.1177063 2.5843582 1.1632385 5.506794 0.12652588 8.124405l-40.843567 103.12669c-2.158844 5.450897 -8.327423 8.118774 -13.777893 5.9588776l-39.47467 -15.642883c-5.4505005 -2.1598969 -8.1188965 -8.329666 -5.9600525 -13.780563z" fill-rule="evenodd"/><path fill="#000000" d="m16.77559 73.10105l0 16.0c0 0.4970169 0.1974392 0.9736786 0.54888535 1.3251266c0.35144615 0.35144806 0.82810974 0.54888916 1.3251305 0.54888916l1.8740158 0c8.9645386E-5 0 1.6403198E-4 -7.6293945E-5 1.6403198E-4 -1.6784668E-4l-1.6403198E-4 -19.747864l0 0c0 -9.1552734E-5 -7.43866E-5 -1.6784668E-4 -1.6593933E-4 -1.6784668E-4l-1.8738499 1.6784668E-4l0 0c-1.0349903 0 -1.8740158 0.8390274 -1.8740158 1.8740158z" fill-rule="evenodd"/><path stroke="#000000" stroke-width="1.0" stroke-linejoin="round" stroke-linecap="butt" d="m16.77559 73.10105l0 16.0c0 0.4970169 0.1974392 0.9736786 0.54888535 1.3251266c0.35144615 0.35144806 0.82810974 0.54888916 1.3251305 0.54888916l1.8740158 0c8.9645386E-5 0 1.6403198E-4 -7.6293945E-5 1.6403198E-4 -1.6784668E-4l-1.6403198E-4 -19.747864l0 0c0 -9.1552734E-5 -7.43866E-5 -1.6784668E-4 -1.6593933E-4 -1.6784668E-4l-1.8738499 1.6784668E-4l0 0c-1.0349903 0 -1.8740158 0.8390274 -1.8740158 1.8740158z" fill-rule="evenodd"/><path fill="#434343" d="m226.98544 59.649605l-200.15723 0c-1.6706886 0 -3.2729511 0.66368103 -4.4543056 1.8450356c-1.1813545 1.1813545 -1.8450336 2.783619 -1.8450336 4.4543037l0 31.495941c0 9.765625E-4 7.9345703E-4 0.0017700195 0.0017719269 0.0017700195l212.75414 -0.0017700195l0 0c9.765625E-4 0 0.0017700195 -7.9345703E-4 0.0017700195 -0.0017776489l-0.0017700195 -31.494164l0 0c0 -3.4790268 -2.8203125 -6.2993393 -6.2993317 -6.2993393z" fill-rule="evenodd"/><path stroke="#434343" stroke-width="1.0" stroke-linejoin="round" stroke-linecap="butt" d="m226.98544 59.649605l-200.15723 0c-1.6706886 0 -3.2729511 0.66368103 -4.4543056 1.8450356c-1.1813545 1.1813545 -1.8450336 2.783619 -1.8450336 4.4543037l0 31.495941c0 9.765625E-4 7.9345703E-4 0.0017700195 0.0017719269 0.0017700195l212.75414 -0.0017700195l0 0c9.765625E-4 0 0.0017700195 -7.9345703E-4 0.0017700195 -0.0017776489l-0.0017700195 -31.494164l0 0c0 -3.4790268 -2.8203125 -6.2993393 -6.2993317 -6.2993393z" fill-rule="evenodd"/><path fill="#363636" d="m218.63892 175.20328l-20.905777 -52.661423l-23.913116 0l20.905777 52.661423z" fill-rule="evenodd"/><path stroke="#363636" stroke-width="16.0" stroke-linejoin="round" stroke-linecap="butt" d="m218.63892 175.20328l-20.905777 -52.661423l-23.913116 0l20.905777 52.661423z" fill-rule="evenodd"/><path fill="#2f2f2f" fill-opacity="0.3734" d="m223.02354 72.84601l-0.61416626 0l0 0c-0.5742798 0 -1.125061 0.22813416 -1.5311432 0.6342163c-0.40608215 0.40608215 -0.6342163 0.9568558 -0.6342163 1.5311432l0 22.435974c0 2.2888184E-5 1.5258789E-5 3.8146973E-5 4.5776367E-5 3.8146973E-5l4.9448395 -3.8146973E-5l0 0c1.5258789E-5 0 4.5776367E-5 -2.2888184E-5 4.5776367E-5 -4.5776367E-5l-4.5776367E-5 -22.435928l0 0c0 -1.1959 -0.96946716 -2.1653595 -2.1653595 -2.1653595z" fill-rule="evenodd"/><path fill="#2f2f2f" fill-opacity="0.3734" d="m211.14665 72.84601l-0.614151 0l0 0c-0.57429504 0 -1.125061 0.22813416 -1.5311432 0.6342163c-0.40608215 0.40608215 -0.6342163 0.9568558 -0.6342163 1.5311432l0 22.435974c0 2.2888184E-5 1.5258789E-5 3.8146973E-5 3.0517578E-5 3.8146973E-5l4.9448395 -3.8146973E-5l0 0c3.0517578E-5 0 4.5776367E-5 -2.2888184E-5 4.5776367E-5 -4.5776367E-5l-4.5776367E-5 -22.435928l0 0c0 -1.1959 -0.96946716 -2.1653595 -2.1653595 -2.1653595z" fill-rule="evenodd"/><path fill="#2f2f2f" fill-opacity="0.3734" d="m199.26715 72.84601l-0.61416626 0l0 0c-0.5742798 0 -1.1250458 0.22813416 -1.5311432 0.6342163c-0.40608215 0.40608215 -0.6342163 0.9568558 -0.6342163 1.5311432l0 22.435974c0 2.2888184E-5 1.5258789E-5 3.8146973E-5 4.5776367E-5 3.8146973E-5l4.9448395 -3.8146973E-5l0 0c1.5258789E-5 0 4.5776367E-5 -2.2888184E-5 4.5776367E-5 -4.5776367E-5l-4.5776367E-5 -22.435928l0 0c0 -1.1959 -0.96946716 -2.1653595 -2.1653595 -2.1653595z" fill-rule="evenodd"/><path fill="#2f2f2f" fill-opacity="0.3734" d="m187.38837 72.84601l-0.614151 0l0 0c-0.57429504 0 -1.125061 0.22813416 -1.5311432 0.6342163c-0.40608215 0.40608215 -0.6342163 0.9568558 -0.6342163 1.5311432l0 22.435974c0 2.2888184E-5 1.5258789E-5 3.8146973E-5 3.0517578E-5 3.8146973E-5l4.9448395 -3.8146973E-5l0 0c3.0517578E-5 0 4.5776367E-5 -2.2888184E-5 4.5776367E-5 -4.5776367E-5l-4.5776367E-5 -22.435928l0 0c0 -1.1959 -0.96946716 -2.1653595 -2.1653595 -2.1653595z" fill-rule="evenodd"/><path fill="#2f2f2f" fill-opacity="0.3734" d="m175.51149 72.84601l-0.61416626 0l0 0c-0.5742798 0 -1.125061 0.22813416 -1.5311432 0.6342163c-0.40608215 0.40608215 -0.6342163 0.9568558 -0.6342163 1.5311432l0 22.435974c0 2.2888184E-5 1.5258789E-5 3.8146973E-5 4.5776367E-5 3.8146973E-5l4.9448395 -3.8146973E-5l0 0c1.5258789E-5 0 4.5776367E-5 -2.2888184E-5 4.5776367E-5 -4.5776367E-5l-4.5776367E-5 -22.435928l0 0c0 -1.1959 -0.96946716 -2.1653595 -2.1653595 -2.1653595z" fill-rule="evenodd"/><path fill="#2f2f2f" fill-opacity="0.3734" d="m163.63197 72.84601l-0.614151 0l0 0c-0.57429504 0 -1.125061 0.22813416 -1.5311432 0.6342163c-0.40608215 0.40608215 -0.6342163 0.9568558 -0.6342163 1.5311432l0 22.435974c0 2.2888184E-5 1.5258789E-5 3.8146973E-5 3.0517578E-5 3.8146973E-5l4.9448395 -3.8146973E-5l0 0c3.0517578E-5 0 4.5776367E-5 -2.2888184E-5 4.5776367E-5 -4.5776367E-5l-4.5776367E-5 -22.435928l0 0c0 -1.1959 -0.96946716 -2.1653595 -2.1653595 -2.1653595z" fill-rule="evenodd"/><path fill="#2f2f2f" fill-opacity="0.3734" d="m151.75272 72.84601l-0.61416626 0l0 0c-0.5742798 0 -1.125061 0.22813416 -1.5311432 0.6342163c-0.40608215 0.40608215 -0.6342163 0.9568558 -0.6342163 1.5311432l0 22.435974c0 2.2888184E-5 1.5258789E-5 3.8146973E-5 4.5776367E-5 3.8146973E-5l4.9448395 -3.8146973E-5l0 0c1.5258789E-5 0 4.5776367E-5 -2.2888184E-5 4.5776367E-5 -4.5776367E-5l-4.5776367E-5 -22.435928l0 0c0 -1.1959 -0.96946716 -2.1653595 -2.1653595 -2.1653595z" fill-rule="evenodd"/><path fill="#2f2f2f" fill-opacity="0.3734" d="m99.3175 72.84601l-0.614151 0l0 0c-0.5742874 0 -1.125061 0.22813416 -1.5311432 0.6342163c-0.40608215 0.40608215 -0.63422394 0.9568558 -0.63422394 1.5311432l0 22.435974c0 2.2888184E-5 2.2888184E-5 3.8146973E-5 4.5776367E-5 3.8146973E-5l4.9448395 -3.8146973E-5l0 0c2.2888184E-5 0 3.8146973E-5 -2.2888184E-5 3.8146973E-5 -4.5776367E-5l-3.8146973E-5 -22.435928l0 0c0 -1.1959 -0.96946716 -2.1653595 -2.1653671 -2.1653595z" fill-rule="evenodd"/><path fill="#2f2f2f" fill-opacity="0.3734" d="m87.44062 72.84601l-0.61415863 0l0 0c-0.5742874 0 -1.125061 0.22813416 -1.5311432 0.6342163c-0.40608215 0.40608215 -0.6342163 0.9568558 -0.6342163 1.5311432l0 22.435974c0 2.2888184E-5 1.5258789E-5 3.8146973E-5 3.8146973E-5 3.8146973E-5l4.9448395 -3.8146973E-5l0 0c2.2888184E-5 0 3.8146973E-5 -2.2888184E-5 3.8146973E-5 -4.5776367E-5l-3.8146973E-5 -22.435928l0 0c0 -1.1959 -0.96946716 -2.1653595 -2.1653595 -2.1653595z" fill-rule="evenodd"/><path fill="#2f2f2f" fill-opacity="0.3734" d="m75.56111 72.84601l-0.61415863 0l0 0c-0.5742874 0 -1.125061 0.22813416 -1.5311432 0.6342163c-0.40608215 0.40608215 -0.6342163 0.9568558 -0.6342163 1.5311432l0 22.435974c0 2.2888184E-5 1.5258789E-5 3.8146973E-5 3.8146973E-5 3.8146973E-5l4.9448395 -3.8146973E-5l0 0c2.2888184E-5 0 4.5776367E-5 -2.2888184E-5 4.5776367E-5 -4.5776367E-5l-4.5776367E-5 -22.435928l0 0c0 -1.1959 -0.96946716 -2.1653595 -2.1653595 -2.1653595z" fill-rule="evenodd"/><path fill="#2f2f2f" fill-opacity="0.3734" d="m63.68233 72.84601l-0.6141548 0l0 0c-0.5742912 0 -1.125061 0.22813416 -1.5311432 0.6342163c-0.40608597 0.40608215 -0.6342201 0.9568558 -0.6342201 1.5311432l0 22.435974c0 2.2888184E-5 1.9073486E-5 3.8146973E-5 4.196167E-5 3.8146973E-5l4.9448395 -3.8146973E-5l0 0c2.2888184E-5 0 3.8146973E-5 -2.2888184E-5 3.8146973E-5 -4.5776367E-5l-3.8146973E-5 -22.435928l0 0c0 -1.1959 -0.96946716 -2.1653595 -2.1653633 -2.1653595z" fill-rule="evenodd"/><path fill="#2f2f2f" fill-opacity="0.3734" d="m51.805447 72.84601l-0.6141548 0l0 0c-0.5742912 0 -1.1250572 0.22813416 -1.5311432 0.6342163c-0.40608597 0.40608215 -0.6342201 0.9568558 -0.6342201 1.5311432l0 22.435974c0 2.2888184E-5 1.9073486E-5 3.8146973E-5 4.196167E-5 3.8146973E-5l4.9448395 -3.8146973E-5l0 0c2.2888184E-5 0 4.196167E-5 -2.2888184E-5 4.196167E-5 -4.5776367E-5l-4.196167E-5 -22.435928l0 0c0 -1.1959 -0.96946716 -2.1653595 -2.1653633 -2.1653595z" fill-rule="evenodd"/><path fill="#2f2f2f" fill-opacity="0.3734" d="m39.925938 72.84601l-0.6141548 0l0 0c-0.5742912 0 -1.1250572 0.22813416 -1.5311432 0.6342163c-0.40608597 0.40608215 -0.6342201 0.9568558 -0.6342201 1.5311432l0 22.435974c0 2.2888184E-5 1.9073486E-5 3.8146973E-5 4.196167E-5 3.8146973E-5l4.9448395 -3.8146973E-5l0 0c2.2888184E-5 0 4.196167E-5 -2.2888184E-5 4.196167E-5 -4.5776367E-5l-4.196167E-5 -22.435928l0 0c0 -1.1959 -0.96946716 -2.1653595 -2.1653633 -2.1653595z" fill-rule="evenodd"/><path fill="#2f2f2f" fill-opacity="0.3734" d="m28.046673 72.84601l-0.6141548 0l0 0c-0.5742893 0 -1.1250591 0.22813416 -1.5311432 0.6342163c-0.40608406 0.40608215 -0.6342201 0.9568558 -0.6342201 1.5311432l0 22.435974c0 2.2888184E-5 1.7166138E-5 3.8146973E-5 4.005432E-5 3.8146973E-5l4.9448414 -3.8146973E-5l0 0c2.2888184E-5 0 4.196167E-5 -2.2888184E-5 4.196167E-5 -4.5776367E-5l-4.196167E-5 -22.435928l0 0c0 -1.1959 -0.96946716 -2.1653595 -2.1653633 -2.1653595z" fill-rule="evenodd"/><path fill="#2f2f2f" d="m22.003967 106.29002l209.80571 0c0.3912201 0 0.76641846 -0.15541077 1.0430603 -0.43204498c0.2766266 -0.27663422 0.43203735 -0.65182495 0.43203735 -1.043045l0 -7.3752975c0 -9.841919E-4 -7.9345703E-4 -0.0017776489 -0.0017700195 -0.0017776489l-212.75414 0.0017776489l0 0c-9.784698E-4 0 -0.0017738342 7.9345703E-4 -0.0017738342 0.0017700195l0.0017738342 7.3735275l0 0c0 0.81466675 0.6604233 1.47509 1.4750957 1.47509z" fill-rule="evenodd"/><path stroke="#2f2f2f" stroke-width="1.0" stroke-linejoin="round" stroke-linecap="butt" d="m22.003967 106.29002l209.80571 0c0.3912201 0 0.76641846 -0.15541077 1.0430603 -0.43204498c0.2766266 -0.27663422 0.43203735 -0.65182495 0.43203735 -1.043045l0 -7.3752975c0 -9.841919E-4 -7.9345703E-4 -0.0017776489 -0.0017700195 -0.0017776489l-212.75414 0.0017776489l0 0c-9.784698E-4 0 -0.0017738342 7.9345703E-4 -0.0017738342 0.0017700195l0.0017738342 7.3735275l0 0c0 0.81466675 0.6604233 1.47509 1.4750957 1.47509z" fill-rule="evenodd"/><path fill="#525252" fill-opacity="0.5759" d="m227.80315 65.57735l0 0c0 -1.052391 -0.8531189 -1.9055138 -1.9055023 -1.9055138l-198.74016 0c-0.505373 0 -0.99004745 0.20075607 -1.3474007 0.5581093c-0.3573532 0.3573532 -0.5581112 0.84202576 -0.5581112 1.3474045l0 0l0 0c0 1.0523834 0.8531265 1.90551 1.9055119 1.90551l198.74016 0c1.0523834 0 1.9055023 -0.8531265 1.9055023 -1.90551z" fill-rule="evenodd"/></g></svg>