<svg version="1.1" viewBox="0.0 0.0 256.0 256.0" fill="none" stroke="none" stroke-linecap="square" stroke-miterlimit="10" xmlns:xlink="http://www.w3.org/1999/xlink" xmlns="http://www.w3.org/2000/svg"><clipPath id="p.0"><path d="m0 0l256.0 0l0 256.0l-256.0 0l0 -256.0z" clip-rule="nonzero"/></clipPath><g clip-path="url(#p.0)"><path fill="#000000" fill-opacity="0.0" d="m0 0l256.0 0l0 256.0l-256.0 0z" fill-rule="evenodd"/><path fill="#f3f3f3" fill-opacity="0.2785" d="m1.8740157 128.0l0 0c0 -69.657455 56.468525 -126.125984 126.125984 -126.125984l0 0c33.450684 0 65.53133 13.288235 89.18454 36.941444c23.653214 23.65321 36.941452 55.73385 36.941452 89.18454l0 0c0 69.657455 -56.468536 126.12599 -126.12599 126.12599l0 0c-69.657455 0 -126.125984 -56.468536 -126.125984 -126.12599z" fill-rule="evenodd"/><path fill="#434343" d="m41.310337 128.00151l0 0c0 -47.879166 38.81374 -86.69291 86.69292 -86.69291l0 0c22.992386 0 45.043076 9.133694 61.301147 25.39177c16.258072 16.258072 25.39177 38.308754 25.39177 61.30114l0 0c0 47.87918 -38.81375 86.69292 -86.69292 86.69292l0 0c-47.879173 0 -86.69292 -38.813736 -86.69292 -86.69292zm16.922455 0l0 0c0 38.533157 31.2373 69.77046 69.77046 69.77046c38.533157 0 69.77046 -31.237305 69.77046 -69.77046l0 0c0 -38.533157 -31.237305 -69.77045 -69.77046 -69.77045l0 0c-38.533157 0 -69.77046 31.237293 -69.77046 69.77045z" fill-rule="evenodd"/><path stroke="#434343" stroke-width="1.0" stroke-linejoin="round" stroke-linecap="butt" d="m41.310337 128.00151l0 0c0 -47.879166 38.81374 -86.69291 86.69292 -86.69291l0 0c22.992386 0 45.043076 9.133694 61.301147 25.39177c16.258072 16.258072 25.39177 38.308754 25.39177 61.30114l0 0c0 47.87918 -38.81375 86.69292 -86.69292 86.69292l0 0c-47.879173 0 -86.69292 -38.813736 -86.69292 -86.69292zm16.922455 0l0 0c0 38.533157 31.2373 69.77046 69.77046 69.77046c38.533157 0 69.77046 -31.237305 69.77046 -69.77046l0 0c0 -38.533157 -31.237305 -69.77045 -69.77046 -69.77045l0 0c-38.533157 0 -69.77046 31.237293 -69.77046 69.77045z" fill-rule="evenodd"/><path fill="#434343" d="m117.13487 25.195951l0 0c0 -2.0004406 1.6216736 -3.62212 3.622116 -3.62212l14.488052 0l0 0c0.9606323 0 1.8819427 0.3816166 2.5612183 1.0608959c0.6792755 0.6792774 1.0608978 1.6005783 1.0608978 2.561224l0 55.24395c0 2.0004425 -1.6216736 3.622116 -3.622116 3.622116l-14.488052 0c-2.0004425 0 -3.622116 -1.6216736 -3.622116 -3.622116z" fill-rule="evenodd"/><path stroke="#434343" stroke-width="1.0" stroke-linejoin="round" stroke-linecap="butt" d="m117.13487 25.195951l0 0c0 -2.0004406 1.6216736 -3.62212 3.622116 -3.62212l14.488052 0l0 0c0.9606323 0 1.8819427 0.3816166 2.5612183 1.0608959c0.6792755 0.6792774 1.0608978 1.6005783 1.0608978 2.561224l0 55.24395c0 2.0004425 -1.6216736 3.622116 -3.622116 3.622116l-14.488052 0c-2.0004425 0 -3.622116 -1.6216736 -3.622116 -3.622116z" fill-rule="evenodd"/><path fill="#434343" d="m117.13487 175.5601l0 0c0 -2.0004425 1.6216736 -3.6221313 3.622116 -3.6221313l14.488052 0l0 0c0.9606323 0 1.8819427 0.3816223 2.5612183 1.0608978c0.6792755 0.6792755 1.0608978 1.6005859 1.0608978 2.5612335l0 55.243942c0 2.0004425 -1.6216736 3.622116 -3.622116 3.622116l-14.488052 0c-2.0004425 0 -3.622116 -1.6216736 -3.622116 -3.622116z" fill-rule="evenodd"/><path stroke="#434343" stroke-width="1.0" stroke-linejoin="round" stroke-linecap="butt" d="m117.13487 175.5601l0 0c0 -2.0004425 1.6216736 -3.6221313 3.622116 -3.6221313l14.488052 0l0 0c0.9606323 0 1.8819427 0.3816223 2.5612183 1.0608978c0.6792755 0.6792755 1.0608978 1.6005859 1.0608978 2.5612335l0 55.243942c0 2.0004425 -1.6216736 3.622116 -3.622116 3.622116l-14.488052 0c-2.0004425 0 -3.622116 -1.6216736 -3.622116 -3.622116z" fill-rule="evenodd"/><path fill="#434343" d="m230.80405 117.13314l0 0c2.0004425 0 3.622116 1.6216736 3.622116 3.622116l0 14.488045l0 0c0 0.9606476 -0.38160706 1.8819427 -1.0608826 2.5612335c-0.6792908 0.6792755 -1.6005859 1.0608826 -2.5612335 1.0608826l-55.243942 0c-2.0004425 0 -3.6221313 -1.6216736 -3.6221313 -3.622116l0 -14.488045c0 -2.0004425 1.6216888 -3.622116 3.6221313 -3.622116z" fill-rule="evenodd"/><path stroke="#434343" stroke-width="1.0" stroke-linejoin="round" stroke-linecap="butt" d="m230.80405 117.13314l0 0c2.0004425 0 3.622116 1.6216736 3.622116 3.622116l0 14.488045l0 0c0 0.9606476 -0.38160706 1.8819427 -1.0608826 2.5612335c-0.6792908 0.6792755 -1.6005859 1.0608826 -2.5612335 1.0608826l-55.243942 0c-2.0004425 0 -3.6221313 -1.6216736 -3.6221313 -3.622116l0 -14.488045c0 -2.0004425 1.6216888 -3.622116 3.6221313 -3.622116z" fill-rule="evenodd"/><path fill="#434343" d="m80.4399 117.13314l0 0c2.0004425 0 3.622116 1.6216736 3.622116 3.622116l0 14.488045l0 0c0 0.9606476 -0.38161469 1.8819427 -1.0608902 2.5612335c-0.67928314 0.6792755 -1.6005783 1.0608826 -2.561226 1.0608826l-55.24395 0c-2.0004406 0 -3.62212 -1.6216736 -3.62212 -3.622116l0 -14.488045c0 -2.0004425 1.6216793 -3.622116 3.62212 -3.622116z" fill-rule="evenodd"/><path stroke="#434343" stroke-width="1.0" stroke-linejoin="round" stroke-linecap="butt" d="m80.4399 117.13314l0 0c2.0004425 0 3.622116 1.6216736 3.622116 3.622116l0 14.488045l0 0c0 0.9606476 -0.38161469 1.8819427 -1.0608902 2.5612335c-0.67928314 0.6792755 -1.6005783 1.0608826 -2.561226 1.0608826l-55.24395 0c-2.0004406 0 -3.62212 -1.6216736 -3.62212 -3.622116l0 -14.488045c0 -2.0004425 1.6216793 -3.622116 3.62212 -3.622116z" fill-rule="evenodd"/><path fill="#434343" d="m113.50356 128.00577l0 0c0 -8.010307 6.4936295 -14.503937 14.503929 -14.503937l0 0c3.846695 0 7.5358276 1.5280838 10.255844 4.2481003c2.7200165 2.7200165 4.2480927 6.409149 4.2480927 10.2558365l0 0c0 8.0103 -6.493622 14.503937 -14.503937 14.503937l0 0c-8.0103 0 -14.503929 -6.493637 -14.503929 -14.503937z" fill-rule="evenodd"/><path stroke="#434343" stroke-width="1.0" stroke-linejoin="round" stroke-linecap="butt" d="m113.50356 128.00577l0 0c0 -8.010307 6.4936295 -14.503937 14.503929 -14.503937l0 0c3.846695 0 7.5358276 1.5280838 10.255844 4.2481003c2.7200165 2.7200165 4.2480927 6.409149 4.2480927 10.2558365l0 0c0 8.0103 -6.493622 14.503937 -14.503937 14.503937l0 0c-8.0103 0 -14.503929 -6.493637 -14.503929 -14.503937z" fill-rule="evenodd"/></g></svg>